<svg width="1200" height="1200" xmlns="http://www.w3.org/2000/svg" stroke="null">
 <g id="Layer_1">
  <title>Layer 1</title>
  <metadata>Created by potrace 1.16, written by Peter Selinger 2001-2019</metadata>
  <g stroke="null" id="svg_5">
   <path stroke="#0C372C" id="svg_6" d="m579.86708,30.60008c-36.54273,1.65434 -69.41018,5.79018 -107.10799,13.23469c-5.25039,1.03396 -35.07262,8.89206 -43.89328,11.58036c-5.04038,1.44754 -9.55571,2.79169 -10.18576,2.99849c-0.52504,0.1034 -2.41518,0.72377 -4.09531,1.44754c-1.68013,0.62038 -3.78028,1.34415 -4.72535,1.55094c-0.94507,0.20679 -2.83521,0.82717 -4.30532,1.34415c-1.47011,0.62038 -6.82551,2.5849 -12.0759,4.44603c-15.33114,5.47999 -30.13725,11.89055 -53.554,23.05732c-12.0759,5.79018 -22.26166,10.75319 -22.57669,11.06338c-0.31502,0.31019 -6.09045,3.61886 -12.81096,7.44452c-6.82551,3.82565 -18.58639,11.06338 -26.25196,16.02639c-7.66557,4.96301 -14.38607,9.30564 -14.91111,9.51244c-0.52504,0.20679 -1.68013,1.03396 -2.6252,1.75773c-0.94507,0.72377 -6.19546,4.65282 -11.65587,8.58187c-11.55086,8.37508 -10.92082,7.9615 -15.85618,11.99394c-2.10016,1.65434 -5.3554,4.23924 -7.14053,5.68678c-1.89014,1.44754 -4.72535,3.72226 -6.30047,5.1698c-1.57512,1.44754 -5.88044,5.1698 -9.55571,8.27168c-26.88201,23.05732 -56.2842,54.48972 -80.64602,86.3357c-4.41033,5.68678 -8.29562,10.5464 -8.61064,10.85659c-0.42003,0.31019 -0.94507,0.93056 -1.15509,1.55094c-0.21002,0.51698 -4.51534,7.03093 -9.45071,14.47545c-7.77058,11.47696 -18.27136,28.43391 -25.5169,41.04823c-3.88529,6.82414 -18.7964,36.6022 -22.15665,44.25351c-1.89014,4.23924 -4.30532,9.82262 -5.56542,12.40753c-1.15509,2.5849 -3.04523,7.23772 -4.30532,10.33961c-1.15509,3.10188 -2.7302,7.03093 -3.36025,8.78866c-0.73505,1.65434 -1.3651,3.30867 -1.47011,3.61886c-0.42003,1.96452 -4.09531,12.09734 -4.62034,12.92451c-0.31502,0.51698 -0.63005,1.65434 -0.73505,2.37811c-0.21002,0.82717 -0.63005,2.17132 -1.05008,3.10188c-0.42003,0.93056 -0.84006,2.17132 -1.05008,2.79169c-0.10501,0.51698 -2.41518,8.27168 -4.93537,17.06035c-11.55086,39.08371 -18.48138,76.61647 -21.84163,118.18169c-1.89014,23.26411 -0.63005,86.3357 2.10016,108.35906c4.09531,32.87994 10.08075,62.45122 18.6914,92.43607c2.6252,9.09885 4.83036,16.95695 4.93537,17.57733c0.10501,0.51698 0.52504,1.65434 0.94507,2.27471c0.52504,0.72377 0.52504,1.34415 0.10501,1.34415c-0.31502,0 -0.10501,0.72377 0.63005,1.55094c0.73505,0.82717 0.94507,1.55094 0.52504,1.55094c-0.42003,0 -0.21002,0.72377 0.52504,1.55094c0.73505,0.82717 0.94507,1.55094 0.52504,1.55094c-0.42003,0 -0.31502,0.62038 0.21002,1.34415c0.84006,0.93056 4.30532,9.82262 5.04038,13.1313c0.10501,0.31019 0.73505,1.86113 1.47011,3.61886c0.73505,1.65434 2.31017,5.68678 3.46526,8.78866c1.15509,3.10188 3.25524,8.06489 4.62034,11.06338c1.3651,2.89509 2.52019,5.58339 2.52019,5.89357c0,2.37811 21.10658,43.63313 30.34727,59.45273c3.88529,6.61735 7.9806,13.54488 9.13568,15.50941c1.05008,1.96452 2.52019,4.23924 3.25524,5.1698c0.63005,0.93056 5.25039,7.65131 10.29077,15.09582c28.45712,41.56521 60.90455,77.54704 103.64274,114.76962c6.7205,5.89357 7.77058,6.61735 22.89171,18.19771c40.42802,30.81202 84.74132,56.35085 131.78484,75.78931c9.24069,3.82565 17.95634,7.44452 19.42645,8.16829c1.47011,0.62038 2.83521,1.13736 3.15024,1.24075c0.31502,0 9.97574,3.20528 21.52661,6.92754c27.82708,9.09885 72.45541,19.95544 90.30674,22.02336c1.78513,0.20679 6.51049,0.82717 10.50078,1.55094c30.13725,4.65282 83.69125,6.92754 117.60878,4.96301c28.66714,-1.75773 62.79469,-6.41056 90.20173,-12.40753c8.19061,-1.75773 15.75118,-3.30867 16.90626,-3.51547c2.7302,-0.41358 4.93537,-1.03396 6.82551,-1.75773c0.84006,-0.31019 7.03553,-2.06792 13.65102,-3.92905c14.17606,-3.82565 36.85775,-11.37357 53.02896,-17.57733c6.40548,-2.48151 11.76088,-4.54943 12.0759,-4.54943c4.41033,-0.93056 52.08389,-24.40147 67.31002,-33.08674c6.40548,-3.72226 11.86589,-6.72074 12.18091,-6.72074c0.21002,0 0.94507,-0.51698 1.68013,-1.03396c1.57512,-1.34415 27.09202,-17.88752 28.45712,-18.50789c0.52504,-0.20679 1.68013,-1.03396 2.6252,-1.75773c0.94507,-0.72377 6.19546,-4.65282 11.65587,-8.68527c5.46041,-3.92905 11.76088,-8.78866 14.07105,-10.64979c2.20516,-1.75773 4.83036,-3.72226 5.77543,-4.23924c0.94507,-0.51698 1.89014,-1.24075 2.20516,-1.65434c0.31502,-0.31019 4.30532,-3.82565 8.92567,-7.7547c12.91596,-10.95998 32.1324,-28.22712 36.01769,-32.46636c1.99515,-2.06792 7.45556,-7.9615 12.28592,-13.0279c25.72692,-27.39995 48.72364,-56.97122 67.62505,-86.85268c4.62034,-7.44452 8.92567,-13.95847 9.55571,-14.68224c0.52504,-0.72377 1.05008,-1.55094 1.05008,-1.86113c0,-0.31019 2.10016,-4.13584 4.62034,-8.58187c12.91596,-22.64374 28.35212,-55.31689 37.27778,-79.30477c3.04523,-7.9615 5.77543,-15.19922 6.09045,-16.02639c0.31502,-0.82717 0.73505,-2.17132 0.94507,-2.89509c0.10501,-0.82717 0.63005,-2.17132 1.05008,-3.10188c0.42003,-0.93056 0.84006,-2.27471 0.94507,-2.79169c0.21002,-0.62038 1.99515,-6.61735 3.9903,-13.44149c5.77543,-18.92148 14.49108,-54.9033 15.96119,-65.65649c0.21002,-1.44754 1.15509,-7.7547 2.10016,-13.95847c4.72535,-31.329 6.19546,-52.93878 6.09045,-88.40362c-0.10501,-22.64374 -1.57512,-48.07916 -4.20031,-69.27536c-0.31502,-2.5849 -0.73505,-6.10037 -0.84006,-7.7547c-2.7302,-23.16072 -15.22614,-75.06553 -25.09687,-103.70624c-1.99515,-5.79018 -3.36025,-10.5464 -3.04523,-10.5464c0.31502,0 0.10501,-0.62038 -0.52504,-1.34415c-0.63005,-0.72377 -2.41518,-4.75622 -3.9903,-8.99546c-7.56056,-20.78261 -25.09687,-57.38481 -38.8529,-81.37269c-3.67527,-6.41056 -6.7205,-12.09734 -6.7205,-12.61432c0,-0.51698 -0.42003,-1.13736 -0.94507,-1.34415c-0.42003,-0.20679 -3.36025,-4.23924 -6.40548,-9.09885c-3.04523,-4.85961 -8.0856,-12.40753 -11.13083,-16.75016c-3.15024,-4.44603 -5.67042,-8.47848 -5.67042,-8.99546c0,-0.51698 -0.42003,-1.13736 -0.84006,-1.34415c-0.42003,-0.20679 -4.62034,-5.1698 -9.13568,-11.16677c-23.10172,-30.19165 -55.86417,-65.24291 -80.85603,-86.3357c-15.54116,-13.1313 -25.5169,-21.19619 -35.70266,-28.64071c-3.9903,-2.89509 -7.56056,-5.58339 -7.87559,-5.99697c-0.31502,-0.31019 -6.93052,-4.75622 -14.7011,-9.82262c-7.77058,-5.1698 -14.28107,-9.61583 -14.49108,-10.13281c-0.21002,-0.41358 -0.84006,-0.72377 -1.47011,-0.72377c-0.52504,0 -2.52019,-1.03396 -4.30532,-2.37811c-3.57027,-2.48151 -6.61549,-4.34263 -9.13568,-5.58339c-0.84006,-0.41358 -5.56542,-2.99849 -10.50078,-5.79018c-20.79155,-11.89055 -59.22442,-29.67467 -81.80111,-37.94635c-4.83036,-1.75773 -9.3457,-3.51547 -9.97574,-3.82565c-0.63005,-0.41358 -1.68013,-0.82717 -2.31017,-0.93056c-1.15509,-0.20679 -30.24226,-9.40904 -32.97246,-10.443c-0.84006,-0.31019 -2.31017,-0.72377 -3.15024,-0.82717c-0.84006,-0.1034 -8.40063,-1.96452 -16.80125,-4.13584c-14.28107,-3.61886 -41.89813,-9.40904 -48.82864,-10.23621c-1.68013,-0.31019 -10.7108,-1.44754 -19.95149,-2.5849c-9.24069,-1.24075 -19.84648,-2.48151 -23.62676,-2.6883c-3.78028,-0.31019 -9.45071,-0.72377 -12.60094,-1.03396c-8.0856,-0.62038 -50.50877,-1.24075 -58.80439,-0.93056zm73.40048,22.64374c60.2745,5.89357 115.40361,19.74865 170.00769,42.80597c155.93664,65.75989 274.07046,197.48646 321.00896,357.75035c23.41675,80.13194 28.56213,162.53859 15.12113,244.11808c-30.7673,188.491 -158.0368,348.85829 -336.13009,424.02722c-152.7864,64.41574 -324.2642,59.96971 -473.90038,-12.51092c-77.18076,-37.32597 -143.23069,-90.16136 -196.57467,-157.162c-90.72677,-114.04585 -133.04493,-261.7988 -116.24368,-405.82952c22.05165,-189.93855 139.45041,-354.13149 313.23838,-438.29588c67.31002,-32.56976 138.29532,-51.18105 215.37107,-56.45424c18.27136,-1.24075 68.67513,-0.31019 88.10158,1.55094l0.00001,0z" fill="#000000"/>
   <ellipse stroke="#fbc62e" fill="#fbc62e" cx="599.99998" cy="609.00013" id="svg_2" rx="567.04232" ry="558.33868"/>
   <ellipse stroke="null" fill="#232323" cx="600.00001" cy="609.00011" id="svg_1" rx="546.04075" ry="537.65947"/>
   <path stroke="#fbc62e" id="svg_7" d="m584.03883,395.9007c-18.16636,9.51244 -117.81879,61.21046 -221.25151,114.97641c-103.43272,53.76595 -188.06904,97.91606 -188.06904,98.22625c0,0.41358 71.72035,37.84296 408.79552,212.89247c17.85133,9.30564 33.18248,17.06035 33.91753,17.37054c1.15509,0.41358 1.3651,-15.19922 1.3651,-86.02552c0,-81.88967 0.10501,-86.5425 1.78513,-85.81872c1.05008,0.31019 74.34555,39.08371 162.97216,86.12891c88.62661,47.0452 161.50205,85.61193 162.02709,85.81872c0.42003,0.20679 0.84006,-103.49945 0.84006,-230.36641c0,-126.86696 -0.42003,-230.5732 -0.84006,-230.36641c-0.52504,0.1034 -73.40048,38.77352 -162.02709,85.81872c-88.62661,47.0452 -161.92209,85.81872 -162.97216,86.12891c-1.68013,0.72377 -1.78513,-3.92905 -1.78513,-85.71533c0,-47.56218 -0.31502,-86.4391 -0.73505,-86.4391c-0.52504,0.1034 -15.75118,7.8581 -34.02254,17.37054l-0.00001,0zm13.96604,103.39605l0.31502,86.74929l163.28719,-86.74929c89.7817,-47.56218 163.60221,-86.64589 164.12725,-86.64589c0.42003,0 0.73505,88.40362 0.73505,196.4525c0,108.04887 -0.31502,196.4525 -0.73505,196.4525c-0.52504,0 -74.34555,-39.08371 -164.12725,-86.74929l-163.28719,-86.64589l-0.31502,86.85268c-0.21002,81.88967 -0.31502,86.74929 -2.10016,86.02552c-5.88044,-2.17132 -376.13808,-195.41854 -375.92807,-196.03892c0.31502,-0.93056 375.61305,-196.3491 376.97815,-196.3491c0.52504,0 0.94507,38.98031 1.05008,86.64589z" fill="#000000" stroke-width="8"/>
   <path stroke="null" fill="#fbc62e" d="m594.2293,801.82432l-368.22603,-193.00532l368.22603,-193.00532l0,386.01064l0,-0.00001z" id="svg_3"/>
   <path stroke="null" fill="#fbc62e" d="m923.23339,801.8239l-371.02606,-192.31606l371.02606,-192.31605l0,384.63211z" id="svg_4"/>
  </g>
 </g>

</svg>