<svg xmlns="http://www.w3.org/2000/svg" version="1.1" xmlns:xlink="http://www.w3.org/1999/xlink" xmlns:svgjs="http://svgjs.com/svgjs" width="1000" height="1000"><rect width="1000" height="1000" rx="200" ry="200" fill="#fac72e"></rect><g transform="matrix(0.6666666666666666,0,0,0.6666666666666666,99.99996312459314,99.99998219807946)"><svg xmlns="http://www.w3.org/2000/svg" version="1.1" xmlns:xlink="http://www.w3.org/1999/xlink" xmlns:svgjs="http://svgjs.com/svgjs" width="1200" height="1200"><svg width="1200" height="1200" xmlns="http://www.w3.org/2000/svg" stroke="null">
 <g id="Layer_1">
  <title>Layer 1</title>
  <metadata>Created by potrace 1.16, written by Peter Selinger 2001-2019</metadata>
  <g id="svg_5">
   <path stroke="#0C372C" fill="#000000" d="m580.82721,40.59756c-34.8,1.6 -66.1,5.6 -102,12.8c-5,1 -33.4,8.6 -41.8,11.2c-4.8,1.4 -9.1,2.7 -9.7,2.9c-0.5,0.1 -2.3,0.7 -3.9,1.4c-1.6,0.6 -3.6,1.3 -4.5,1.5c-0.9,0.2 -2.7,0.8 -4.1,1.3c-1.4,0.6 -6.5,2.5 -11.5,4.3c-14.6,5.3 -28.7,11.5 -51,22.3c-11.5,5.6 -21.2,10.4 -21.5,10.7c-0.3,0.3 -5.8,3.5 -12.2,7.2c-6.5,3.7 -17.7,10.7 -25,15.5c-7.3,4.8 -13.7,9 -14.2,9.2c-0.5,0.2 -1.6,1 -2.5,1.7c-0.9,0.7 -5.9,4.5 -11.1,8.3c-11,8.1 -10.4,7.7 -15.1,11.6c-2,1.6 -5.1,4.1 -6.8,5.5c-1.8,1.4 -4.5,3.6 -6,5c-1.5,1.4 -5.6,5 -9.1,8c-25.6,22.3 -53.6,52.7 -76.8,83.5c-4.2,5.5 -7.9,10.2 -8.2,10.5c-0.4,0.3 -0.9,0.9 -1.1,1.5c-0.2,0.5 -4.3,6.8 -9,14c-7.4,11.1 -17.4,27.5 -24.3,39.7c-3.7,6.6 -17.9,35.4 -21.1,42.8c-1.8,4.1 -4.1,9.5 -5.3,12c-1.1,2.5 -2.9,7 -4.1,10c-1.1,3 -2.6,6.8 -3.2,8.5c-0.7,1.6 -1.3,3.2 -1.4,3.5c-0.4,1.9 -3.9,11.7 -4.4,12.5c-0.3,0.5 -0.6,1.6 -0.7,2.3c-0.2,0.8 -0.6,2.1 -1,3c-0.4,0.9 -0.8,2.1 -1,2.7c-0.1,0.5 -2.3,8 -4.7,16.5c-11,37.8 -17.6,74.1 -20.8,114.3c-1.8,22.5 -0.6,83.5 2,104.8c3.9,31.8 9.6,60.4 17.8,89.4c2.5,8.8 4.6,16.4 4.7,17c0.1,0.5 0.5,1.6 0.9,2.2c0.5,0.7 0.5,1.3 0.1,1.3c-0.3,0 -0.1,0.7 0.6,1.5c0.7,0.8 0.9,1.5 0.5,1.5c-0.4,0 -0.2,0.7 0.5,1.5c0.7,0.8 0.9,1.5 0.5,1.5c-0.4,0 -0.3,0.6 0.2,1.3c0.8,0.9 4.1,9.5 4.8,12.7c0.1,0.3 0.7,1.8 1.4,3.5c0.7,1.6 2.2,5.5 3.3,8.5c1.1,3 3.1,7.8 4.4,10.7c1.3,2.8 2.4,5.4 2.4,5.7c0,2.3 20.1,42.2 28.9,57.5c3.7,6.4 7.6,13.1 8.7,15c1,1.9 2.4,4.1 3.1,5c0.6,0.9 5,7.4 9.8,14.6c27.1,40.2 58,75 98.7,111c6.4,5.7 7.4,6.4 21.8,17.6c38.5,29.8 80.7,54.5 125.5,73.3c8.8,3.7 17.1,7.2 18.5,7.9c1.4,0.6 2.7,1.1 3,1.2c0.3,0 9.5,3.1 20.5,6.7c26.5,8.8 69,19.3 86,21.3c1.7,0.2 6.2,0.8 10,1.5c28.7,4.5 79.7,6.7 112,4.8c27.3,-1.7 59.8,-6.2 85.9,-12c7.8,-1.7 15,-3.2 16.1,-3.4c2.6,-0.4 4.7,-1 6.5,-1.7c0.8,-0.3 6.7,-2 13,-3.8c13.5,-3.7 35.1,-11 50.5,-17c6.1,-2.4 11.2,-4.4 11.5,-4.4c4.2,-0.9 49.6,-23.6 64.1,-32c6.1,-3.6 11.3,-6.5 11.6,-6.5c0.2,0 0.9,-0.5 1.6,-1c1.5,-1.3 25.8,-17.3 27.1,-17.9c0.5,-0.2 1.6,-1 2.5,-1.7c0.9,-0.7 5.9,-4.5 11.1,-8.4c5.2,-3.8 11.2,-8.5 13.4,-10.3c2.1,-1.7 4.6,-3.6 5.5,-4.1c0.9,-0.5 1.8,-1.2 2.1,-1.6c0.3,-0.3 4.1,-3.7 8.5,-7.5c12.3,-10.6 30.6,-27.3 34.3,-31.4c1.9,-2 7.1,-7.7 11.7,-12.6c24.5,-26.5 46.4,-55.1 64.4,-84c4.4,-7.2 8.5,-13.5 9.1,-14.2c0.5,-0.7 1,-1.5 1,-1.8c0,-0.3 2,-4 4.4,-8.3c12.3,-21.9 27,-53.5 35.5,-76.7c2.9,-7.7 5.5,-14.7 5.8,-15.5c0.3,-0.8 0.7,-2.1 0.9,-2.8c0.1,-0.8 0.6,-2.1 1,-3c0.4,-0.9 0.8,-2.2 0.9,-2.7c0.2,-0.6 1.9,-6.4 3.8,-13c5.5,-18.3 13.8,-53.1 15.2,-63.5c0.2,-1.4 1.1,-7.5 2,-13.5c4.5,-30.3 5.9,-51.2 5.8,-85.5c-0.1,-21.9 -1.5,-46.5 -4,-67c-0.3,-2.5 -0.7,-5.9 -0.8,-7.5c-2.6,-22.4 -14.5,-72.6 -23.9,-100.3c-1.9,-5.6 -3.2,-10.2 -2.9,-10.2c0.3,0 0.1,-0.6 -0.5,-1.3c-0.6,-0.7 -2.3,-4.6 -3.8,-8.7c-7.2,-20.1 -23.9,-55.5 -37,-78.7c-3.5,-6.2 -6.4,-11.7 -6.4,-12.2c0,-0.5 -0.4,-1.1 -0.9,-1.3c-0.4,-0.2 -3.2,-4.1 -6.1,-8.8c-2.9,-4.7 -7.7,-12 -10.6,-16.2c-3,-4.3 -5.4,-8.2 -5.4,-8.7c0,-0.5 -0.4,-1.1 -0.8,-1.3c-0.4,-0.2 -4.4,-5 -8.7,-10.8c-22,-29.2 -53.2,-63.1 -77,-83.5c-14.8,-12.7 -24.3,-20.5 -34,-27.7c-3.8,-2.8 -7.2,-5.4 -7.5,-5.8c-0.3,-0.3 -6.6,-4.6 -14,-9.5c-7.4,-5 -13.6,-9.3 -13.8,-9.8c-0.2,-0.4 -0.8,-0.7 -1.4,-0.7c-0.5,0 -2.4,-1 -4.1,-2.3c-3.4,-2.4 -6.3,-4.2 -8.7,-5.4c-0.8,-0.4 -5.3,-2.9 -10,-5.6c-19.8,-11.5 -56.4,-28.7 -77.9,-36.7c-4.6,-1.7 -8.9,-3.4 -9.5,-3.7c-0.6,-0.4 -1.6,-0.8 -2.2,-0.9c-1.1,-0.2 -28.8,-9.1 -31.4,-10.1c-0.8,-0.3 -2.2,-0.7 -3,-0.8c-0.8,-0.1 -8,-1.9 -16,-4c-13.6,-3.5 -39.9,-9.1 -46.5,-9.9c-1.6,-0.3 -10.2,-1.4 -19,-2.5c-8.8,-1.2 -18.9,-2.4 -22.5,-2.6c-3.6,-0.3 -9,-0.7 -12,-1c-7.7,-0.6 -48.1,-1.2 -56,-0.9zm69.9,21.9c57.4,5.7 109.9,19.1 161.9,41.4c148.5,63.6 261,191 305.7,346.00001c22.3,77.5 27.2,157.2 14.4,236.1c-29.3,182.3 -150.5,337.40001 -320.1,410.10001c-145.5,62.3 -308.8,58 -451.30001,-12.1c-73.5,-36.1 -136.4,-87.2 -187.2,-152c-86.4,-110.3 -126.7,-253.2 -110.7,-392.50001c21,-183.7 132.8,-342.50001 298.3,-423.90001c64.1,-31.5 131.7,-49.5 205.1,-54.6c17.4,-1.2 65.4,-0.3 83.9,1.5z"></path>
   <ellipse ry="540" rx="540" id="svg_2" cy="600.00001" cx="599.99997" stroke="#fbc62e" fill="#fbc62e"></ellipse>
   <ellipse stroke="null" ry="520" rx="520" id="svg_1" cy="599.99999" cx="600" fill="#232323"></ellipse>
   <path stroke-width="8" stroke="#fbc62e" fill="#000000" d="m584.80001,393.89985c-17.3,9.2 -112.2,59.2 -210.7,111.2c-98.5,52 -179.1,94.7 -179.1,95c0,0.4 68.3,36.6 389.30001,205.9c17,9 31.6,16.5 32.3,16.8c1.1,0.4 1.3,-14.7 1.3,-83.2c0,-79.2 0.1,-83.7 1.7,-83c1,0.3 70.8,37.8 155.2,83.3c84.4,45.5 153.8,82.8 154.3,83c0.4,0.2 0.8,-100.1 0.8,-222.8c0,-122.7 -0.4,-223 -0.8,-222.8c-0.5,0.1 -69.9,37.5 -154.3,83c-84.4,45.5 -154.2,83 -155.2,83.3c-1.6,0.7 -1.7,-3.8 -1.7,-82.9c0,-46 -0.3,-83.6 -0.7,-83.6c-0.5,0.1 -15,7.6 -32.4,16.8zm13.3,100l0.3,83.9l155.5,-83.9c85.5,-46 155.8,-83.8 156.3,-83.8c0.4,0 0.7,85.5 0.7,190c0,104.5 -0.3,190 -0.7,190c-0.5,0 -70.8,-37.8 -156.3,-83.9l-155.5,-83.8l-0.3,84c-0.2,79.2 -0.3,83.9 -2,83.2c-5.6,-2.1 -358.20001,-189 -358.00001,-189.6c0.3,-0.9 357.70001,-189.9 359.00001,-189.9c0.5,0 0.9,37.7 1,83.8z"></path>
   <path transform="rotate(-90 419.172 599.825)" stroke="null" id="svg_3" d="m232.50614,775.15751l186.66604,-350.66528l186.66604,350.66528l-373.33209,0z" fill="#fbc62e"></path>
   <path transform="rotate(-90 731.152 600.491)" stroke="null" id="svg_4" d="m545.15254,777.15739l185.99942,-353.33178l185.99941,353.33178l-371.99883,0z" fill="#fbc62e"></path>
  </g>
 </g>

</svg></svg></g></svg>