<svg xmlns="http://www.w3.org/2000/svg" version="1.1" xmlns:xlink="http://www.w3.org/1999/xlink" xmlns:svgjs="http://svgjs.com/svgjs" width="1000" height="1000"><rect width="1000" height="1000" rx="0" ry="0" fill="#202124"></rect><g transform="matrix(0.6666666666666666,0,0,0.6666666666666666,99.99997965494794,100.00000095367432)"><svg xmlns="http://www.w3.org/2000/svg" version="1.1" xmlns:xlink="http://www.w3.org/1999/xlink" xmlns:svgjs="http://svgjs.com/svgjs" width="1200" height="1200"><svg width="1200" height="1200" xmlns="http://www.w3.org/2000/svg" stroke="null" style="vector-effect: non-scaling-stroke;">
 <g stroke="null" id="Layer_1">
  <title stroke="null">Layer 1</title>
  <g id="svg_34">
   <rect stroke="null" id="svg_8" height="1224.39538" width="1226.02353" y="-12.19769" x="-13.01178" fill="#f5bd3f"></rect>
   <path stroke="#000000" stroke-width="20" id="svg_1" d="m102.80959,596.18075l0,0c0,-271.2347 214.69177,-491.11392 479.52743,-491.11392l0,0c127.17853,0 249.14826,51.74218 339.07703,143.8439c89.92887,92.10176 140.4504,217.01846 140.4504,347.27001l0,0c0,271.23467 -214.69177,491.11392 -479.52743,491.11392l0,0c-264.83563,0 -479.52743,-219.87925 -479.52743,-491.11392zm239.76372,0l0,0c0,135.61732 107.34595,245.55696 239.76372,245.55696c132.41786,0 239.76372,-109.93964 239.76372,-245.55696c0,-135.61732 -107.34592,-245.55696 -239.76372,-245.55696l0,0c-132.41777,0 -239.76372,109.93967 -239.76372,245.55696z" fill="#f5bd3f"></path>
   <path stroke="#ffffff" stroke-width="7" id="svg_15" d="m751.52503,731.80381l-175.30124,-127.45914l175.30124,-127.45902l-100.18282,-72.88498l-275.4839,200.34399l275.4839,200.3593" fill="#000000"></path>
   <line stroke="#ffffff" stroke-width="10" id="svg_20" y2="728.9618" x2="747.96251" y1="801.96747" x1="648.17483" fill="none"></line>
   <path stroke="#f5bd3f" id="svg_21" d="m580.29683,267.62348c34.44519,0.04389 67.35133,6.0538 98.51498,16.09402l-24.66378,42.98474l175.07281,0l-43.7794,-76.40249l-43.74598,-76.37965l-23.02823,40.24718c-43.15857,-15.90021 -89.68514,-24.79886 -138.33902,-24.79886c-223.95024,0 -405.46894,182.92584 -405.46894,408.59712c0,93.661 31.61238,179.71495 84.22233,248.66169l61.65365,-47.70152c-42.54946,-55.71844 -68.13254,-125.24729 -68.27134,-200.93762c0.3099,-182.45225 146.79518,-330.08486 327.8329,-330.36461l0.00003,0zm321.28935,81.76654l-61.65352,47.72437c42.53874,55.69723 68.12195,125.18226 68.239,200.89507c-0.30993,182.45074 -146.79518,330.06225 -327.84342,330.36291c-32.08281,-0.04179 -62.77619,-5.29863 -92.0368,-14.09l23.20942,-40.44223l-175.07203,0l43.74702,76.36021l43.77859,76.46552l24.40721,-42.68185c41.39445,14.5212 85.69676,22.62252 131.9666,22.6436c223.98255,-0.04205 405.47011,-182.96806 405.52272,-408.6395c-0.05261,-93.6608 -31.68747,-179.69374 -84.26478,-248.59807l0,-0.00003z" fill="#000"></path>
   <line stroke="#f6ba4c" stroke-width="10" id="svg_31" y2="815.88116" x2="642.92999" y1="732.15489" x1="758.61866" fill="none"></line>
  </g>
 </g>
</svg></svg></g></svg>