<?xml version="1.0" standalone="no"?>
<!DOCTYPE svg PUBLIC "-//W3C//DTD SVG 20010904//EN"
 "http://www.w3.org/TR/2001/REC-SVG-20010904/DTD/svg10.dtd">
<svg version="1.0" xmlns="http://www.w3.org/2000/svg"
 width="1280.000000pt" height="1280.000000pt" viewBox="0 0 1280.000000 1280.000000"
 preserveAspectRatio="xMidYMid meet">
<metadata>
Created by potrace 1.14, written by Peter Selinger 2001-2017
</metadata>
<g transform="translate(0.000000,1280.000000) scale(0.100000,-0.100000)"
fill="#000000" stroke="none">
<path d="M6088 11045 c-2 -2 -34 -6 -73 -9 -165 -14 -270 -24 -270 -26 0 -1
-11 -3 -25 -5 -44 -5 -113 -16 -200 -32 -47 -9 -95 -17 -106 -18 -12 -2 -30
-8 -41 -14 -11 -5 -23 -8 -25 -5 -3 3 -39 -4 -79 -15 -41 -11 -85 -22 -99 -25
-14 -3 -56 -14 -95 -26 -38 -11 -81 -23 -94 -26 -14 -3 -29 -8 -35 -12 -6 -4
-13 -7 -16 -7 -24 -4 -77 -19 -85 -24 -5 -4 -28 -13 -50 -20 -86 -28 -300
-115 -306 -123 -3 -6 -9 -9 -13 -9 -3 1 -8 0 -11 0 -3 -1 -8 -2 -12 -3 -5 -1
-70 -32 -146 -69 -75 -37 -142 -67 -147 -67 -6 0 -10 -3 -10 -7 0 -5 -35 -26
-78 -48 -42 -22 -78 -43 -80 -47 -2 -5 -10 -8 -18 -8 -8 0 -14 -3 -14 -8 0 -4
-13 -13 -28 -19 -38 -17 -286 -182 -290 -194 -2 -5 -9 -9 -16 -9 -7 0 -21 -8
-32 -17 -10 -10 -37 -31 -59 -47 -22 -17 -43 -35 -47 -40 -4 -6 -8 -8 -8 -4 0
4 -11 -3 -24 -15 -13 -12 -54 -47 -91 -77 -38 -30 -82 -67 -97 -82 -16 -16
-31 -28 -34 -28 -9 0 -342 -336 -396 -400 -26 -30 -61 -71 -78 -90 -17 -19
-56 -69 -87 -110 -31 -41 -61 -79 -67 -85 -6 -5 -23 -28 -38 -50 -14 -22 -33
-49 -42 -60 -43 -54 -198 -301 -253 -403 -35 -65 -70 -129 -92 -168 -13 -24
-82 -174 -128 -279 -72 -165 -165 -433 -209 -600 -1 -5 -10 -35 -18 -67 -8
-31 -17 -67 -20 -80 -2 -12 -14 -65 -25 -117 -12 -51 -19 -96 -16 -99 2 -3 1
-10 -4 -16 -5 -6 -12 -38 -16 -71 -3 -32 -8 -62 -11 -66 -4 -7 -10 -51 -19
-154 -4 -33 -8 -71 -11 -85 -7 -40 -17 -217 -18 -312 -1 -49 -5 -88 -9 -88 -5
0 -5 -5 -1 -11 9 -14 10 -122 1 -136 -3 -5 -3 -13 0 -17 4 -4 8 -33 9 -64 2
-71 14 -253 20 -307 3 -22 6 -56 7 -75 1 -19 5 -39 8 -45 3 -5 5 -22 4 -37 -1
-16 1 -28 4 -28 3 0 6 -12 7 -27 1 -28 12 -109 21 -148 2 -11 6 -31 9 -45 29
-152 62 -287 111 -445 13 -44 26 -89 29 -100 2 -11 24 -74 50 -140 25 -66 46
-126 46 -132 1 -7 6 -13 11 -13 6 0 8 -3 4 -6 -3 -4 0 -19 8 -34 8 -15 11 -30
8 -34 -4 -3 0 -6 7 -6 7 0 10 -3 7 -7 -4 -3 -1 -13 5 -21 7 -8 13 -19 14 -26
1 -6 19 -47 40 -91 21 -44 38 -83 39 -87 0 -3 3 -9 7 -13 4 -4 19 -32 34 -63
15 -32 61 -117 103 -190 42 -73 83 -145 91 -160 8 -15 18 -29 21 -32 13 -12
109 -161 109 -170 0 -6 4 -10 8 -10 5 0 23 -21 40 -48 17 -26 40 -57 51 -68
11 -12 17 -25 14 -28 -4 -3 -2 -6 4 -6 6 0 22 -17 36 -37 14 -21 36 -50 49
-64 13 -15 32 -38 43 -52 125 -155 310 -345 500 -514 106 -94 117 -103 155
-132 19 -14 37 -28 40 -31 3 -3 26 -21 53 -40 26 -19 60 -45 75 -58 15 -13 39
-30 55 -38 15 -8 27 -19 27 -24 0 -6 4 -10 10 -10 5 0 60 -34 121 -75 62 -41
118 -75 125 -75 7 0 14 -4 16 -8 3 -10 161 -102 243 -142 28 -14 53 -29 56
-33 3 -5 8 -8 10 -7 2 1 57 -24 122 -54 65 -31 121 -56 123 -56 3 0 26 -10 52
-22 26 -12 49 -22 52 -23 8 -1 123 -45 145 -55 36 -16 170 -61 195 -66 14 -3
32 -7 40 -11 49 -20 357 -100 470 -122 117 -22 164 -31 205 -35 11 -2 40 -6
65 -10 54 -8 106 -14 180 -21 30 -3 78 -8 105 -11 67 -8 707 -12 720 -5 13 7
13 7 115 15 47 4 92 9 100 11 8 2 40 6 70 9 30 4 66 8 80 11 14 2 63 11 110
19 47 9 96 18 110 21 14 3 36 7 50 10 53 10 337 84 378 99 23 8 42 13 42 9 0
-3 7 0 15 7 8 6 19 9 25 5 5 -3 10 -2 10 3 0 8 33 19 72 26 3 1 10 4 14 8 4 5
14 8 22 8 8 0 28 6 45 14 18 7 48 19 67 26 68 25 226 91 280 118 30 15 57 27
60 27 19 2 333 172 383 207 15 11 27 17 27 13 0 -3 6 -1 13 5 6 5 73 50 147
99 128 84 267 183 300 213 8 8 35 29 60 48 25 19 52 42 61 52 9 10 19 18 23
18 4 0 17 10 30 22 13 13 64 60 114 105 171 157 328 323 468 498 27 33 53 65
59 72 22 27 32 40 65 87 19 27 61 85 93 130 31 45 62 91 67 103 5 13 14 23 20
23 5 0 9 3 8 8 -4 10 35 72 45 72 4 0 5 5 2 10 -3 6 -1 10 4 10 6 0 11 6 11
14 0 7 7 19 15 26 8 7 13 16 10 20 -3 5 -1 11 4 14 19 12 202 366 232 449 7
20 17 37 21 37 4 0 7 3 6 8 0 4 2 16 7 27 36 95 79 204 88 225 6 14 11 30 13
35 1 6 16 53 33 105 17 52 38 115 46 140 18 57 76 287 80 320 2 14 4 26 5 28
5 4 18 77 25 129 2 18 6 36 8 40 3 4 8 33 12 63 3 30 8 64 10 75 1 11 6 43 9
70 4 28 9 64 11 80 7 53 18 228 19 297 1 38 5 68 9 68 4 0 4 8 -2 17 -5 10 -5
26 0 40 4 12 4 25 0 27 -5 3 -5 23 -1 45 4 21 3 46 -2 54 -5 10 -4 18 2 22 6
4 7 11 4 17 -3 5 -8 62 -10 126 -3 109 -5 141 -20 277 -9 77 -23 187 -28 220
-2 11 -7 36 -10 55 -3 19 -9 49 -12 65 -3 17 -7 39 -9 50 -2 11 -11 52 -20 90
-9 39 -17 80 -18 93 0 12 -5 22 -10 22 -4 0 -6 3 -3 8 2 4 -2 30 -10 57 -7 28
-22 80 -32 117 -10 37 -21 71 -25 74 -4 4 -7 19 -7 34 0 14 -4 30 -10 36 -5 5
-11 18 -13 29 -3 18 -26 88 -47 140 -4 11 -23 58 -40 105 -33 87 -54 135 -92
218 -13 26 -23 49 -23 52 -1 8 -84 171 -106 208 -10 17 -17 32 -14 32 4 0 -29
54 -52 85 -5 6 -9 16 -10 23 -2 6 -23 43 -48 82 -25 39 -45 75 -45 80 0 6 -4
10 -10 10 -5 0 -10 7 -10 15 0 8 -4 15 -9 15 -5 0 -14 14 -21 30 -7 17 -16 30
-21 30 -5 0 -9 5 -9 10 0 10 -18 38 -57 89 -6 9 -47 63 -89 121 -43 58 -83
110 -89 115 -6 6 -29 33 -50 60 -22 28 -44 55 -50 61 -5 6 -41 45 -78 87 -80
90 -157 168 -157 161 0 -3 -12 9 -27 27 -16 18 -46 49 -67 69 -22 19 -49 44
-60 55 -58 55 -251 216 -321 267 -5 4 -23 18 -40 31 -16 13 -52 39 -80 57 -27
19 -53 38 -57 44 -4 6 -8 7 -8 3 0 -4 -12 4 -27 18 -15 14 -33 25 -40 25 -7 0
-13 5 -13 10 0 6 -5 10 -11 10 -6 0 -25 11 -43 25 -18 14 -38 25 -44 25 -7 0
-12 5 -12 11 0 5 -4 7 -10 4 -5 -3 -10 -2 -10 3 0 5 -12 15 -27 23 -15 8 -64
35 -108 60 -140 80 -443 229 -497 244 -5 2 -10 4 -13 5 -3 1 -8 3 -12 5 -5 1
-19 6 -33 12 -84 35 -154 63 -161 63 -4 0 -20 5 -36 12 -15 6 -31 12 -35 13
-5 2 -10 4 -13 5 -3 1 -8 3 -12 5 -5 1 -15 4 -23 7 -48 17 -118 39 -135 43
-11 2 -60 16 -110 30 -49 14 -101 27 -115 30 -14 3 -38 7 -54 10 -16 4 -34 8
-38 11 -8 5 -21 8 -83 17 -11 1 -26 6 -32 10 -7 5 -13 6 -13 4 0 -2 -19 -1
-42 4 -24 5 -65 11 -93 14 -27 3 -57 9 -65 12 -8 3 -26 7 -40 9 -55 6 -159 17
-300 31 -60 5 -627 13 -632 8z"/>
<path d="M11020 5879 c0 -5 5 -7 10 -4 6 3 10 8 10 11 0 2 -4 4 -10 4 -5 0
-10 -5 -10 -11z"/>
</g>
</svg>
